<?xml version="1.0" encoding="UTF-8"?>
<svg width="32px" height="32px" viewBox="0 0 32 32" version="1.1" xmlns="http://www.w3.org/2000/svg">
    <title>AI Icon</title>
    <g stroke="none" stroke-width="1" fill="none" fill-rule="evenodd">
        <circle fill="#4285F4" cx="16" cy="16" r="16"></circle>
        <path d="M10,8 L22,8 C23.1045695,8 24,8.8954305 24,10 L24,22 C24,23.1045695 23.1045695,24 22,24 L10,24 C8.8954305,24 8,23.1045695 8,22 L8,10 C8,8.8954305 8.8954305,8 10,8 Z" fill="#FFFFFF"></path>
        <path d="M13,12 L13,20 L11,20 L11,12 L13,12 Z M21,12 L21,20 L19,20 L19,12 L21,12 Z" fill="#4285F4"></path>
        <path d="M17,12 L17,20 L15,20 L15,12 L17,12 Z" fill="#4285F4"></path>
        <path d="M10,8 L22,8 C23.1045695,8 24,8.8954305 24,10 L24,22 C24,23.1045695 23.1045695,24 22,24 L10,24 C8.8954305,24 8,23.1045695 8,22 L8,10 C8,8.8954305 8.8954305,8 10,8 Z" stroke="#FFFFFF" stroke-width="1"></path>
    </g>
</svg>